<svg width="12" height="12" viewBox="0 0 12 12" fill="none" xmlns="http://www.w3.org/2000/svg">
<path d="M7.65449 4.34461C9.05481 5.74638 9.03559 7.99378 7.66292 9.37406C7.66035 9.37687 7.6573 9.37992 7.65449 9.38273L6.07949 10.9577C4.69035 12.3469 2.4303 12.3467 1.04137 10.9577C-0.347773 9.56883 -0.347773 7.30852 1.04137 5.91961L1.91104 5.04994C2.14166 4.81931 2.53883 4.97259 2.55074 5.29852C2.56593 5.71388 2.64041 6.13118 2.77785 6.53416C2.8244 6.67062 2.79114 6.82155 2.68919 6.92351L2.38246 7.23023C1.7256 7.88709 1.705 8.95664 2.35539 9.61992C3.0122 10.2897 4.09178 10.2937 4.75363 9.63187L6.32863 8.05711C6.98935 7.39638 6.98659 6.32843 6.32863 5.67047C6.24189 5.58389 6.15451 5.51662 6.08626 5.46963C6.03798 5.43648 5.99811 5.3925 5.96984 5.3412C5.94157 5.2899 5.92568 5.23271 5.92344 5.17418C5.91416 4.92652 6.00191 4.6713 6.19761 4.4756L6.69107 3.98213C6.82046 3.85273 7.02346 3.83684 7.1735 3.94155C7.34534 4.06154 7.50629 4.19641 7.65449 4.34461ZM10.9576 1.04128C9.56872 -0.347671 7.30867 -0.347859 5.91953 1.04128L4.34453 2.61628C4.34172 2.61909 4.33867 2.62214 4.33609 2.62495C2.96345 4.00523 2.94421 6.25263 4.34453 7.65441C4.49272 7.80259 4.65366 7.93746 4.82549 8.05744C4.97554 8.16216 5.17855 8.14624 5.30793 8.01687L5.80138 7.52339C5.99708 7.32769 6.08483 7.07248 6.07555 6.82481C6.07331 6.76628 6.05742 6.70909 6.02915 6.65779C6.00088 6.6065 5.96101 6.56251 5.91273 6.52936C5.84448 6.48237 5.75711 6.4151 5.67036 6.32852C5.0124 5.67056 5.00964 4.60261 5.67036 3.94188L7.24536 2.36712C7.90721 1.70527 8.98677 1.70925 9.6436 2.37907C10.294 3.04235 10.2734 4.1119 9.61653 4.76876L9.30981 5.07548C9.20785 5.17744 9.17459 5.32837 9.22114 5.46483C9.35858 5.86781 9.43306 6.28512 9.44825 6.70048C9.46018 7.0264 9.85733 7.17968 10.088 6.94905L10.9576 6.07938C12.3468 4.6905 12.3468 2.43019 10.9576 1.04128Z" fill="black"/>
</svg>
