<svg width="19" height="17" viewBox="0 0 19 17" fill="none" xmlns="http://www.w3.org/2000/svg">
<path d="M17.8125 4.9375H1.1875C0.531666 4.9375 0 4.40583 0 3.75V1.375C0 0.719166 0.531666 0.1875 1.1875 0.1875H17.8125C18.4683 0.1875 19 0.719166 19 1.375V3.75C19 4.40583 18.4683 4.9375 17.8125 4.9375ZM16.0312 1.67188C15.5394 1.67188 15.1406 2.07062 15.1406 2.5625C15.1406 3.05438 15.5394 3.45312 16.0312 3.45312C16.5231 3.45312 16.9219 3.05438 16.9219 2.5625C16.9219 2.07062 16.5231 1.67188 16.0312 1.67188ZM13.6562 1.67188C13.1644 1.67188 12.7656 2.07062 12.7656 2.5625C12.7656 3.05438 13.1644 3.45312 13.6562 3.45312C14.1481 3.45312 14.5469 3.05438 14.5469 2.5625C14.5469 2.07062 14.1481 1.67188 13.6562 1.67188ZM17.8125 10.875H1.1875C0.531666 10.875 0 10.3433 0 9.6875V7.3125C0 6.65667 0.531666 6.125 1.1875 6.125H17.8125C18.4683 6.125 19 6.65667 19 7.3125V9.6875C19 10.3433 18.4683 10.875 17.8125 10.875ZM16.0312 7.60938C15.5394 7.60938 15.1406 8.00812 15.1406 8.5C15.1406 8.99188 15.5394 9.39062 16.0312 9.39062C16.5231 9.39062 16.9219 8.99188 16.9219 8.5C16.9219 8.00812 16.5231 7.60938 16.0312 7.60938ZM13.6562 7.60938C13.1644 7.60938 12.7656 8.00812 12.7656 8.5C12.7656 8.99188 13.1644 9.39062 13.6562 9.39062C14.1481 9.39062 14.5469 8.99188 14.5469 8.5C14.5469 8.00812 14.1481 7.60938 13.6562 7.60938ZM17.8125 16.8125H1.1875C0.531666 16.8125 0 16.2808 0 15.625V13.25C0 12.5942 0.531666 12.0625 1.1875 12.0625H17.8125C18.4683 12.0625 19 12.5942 19 13.25V15.625C19 16.2808 18.4683 16.8125 17.8125 16.8125ZM16.0312 13.5469C15.5394 13.5469 15.1406 13.9456 15.1406 14.4375C15.1406 14.9294 15.5394 15.3281 16.0312 15.3281C16.5231 15.3281 16.9219 14.9294 16.9219 14.4375C16.9219 13.9456 16.5231 13.5469 16.0312 13.5469ZM13.6562 13.5469C13.1644 13.5469 12.7656 13.9456 12.7656 14.4375C12.7656 14.9294 13.1644 15.3281 13.6562 15.3281C14.1481 15.3281 14.5469 14.9294 14.5469 14.4375C14.5469 13.9456 14.1481 13.5469 13.6562 13.5469Z" fill="black"/>
</svg>
