<svg width="9" height="10" viewBox="0 0 9 10" fill="none" xmlns="http://www.w3.org/2000/svg">
<g clip-path="url(#clip0_1_232)">
<path d="M5.23438 8.125H5.70312C5.76529 8.125 5.8249 8.10031 5.86885 8.05635C5.91281 8.0124 5.9375 7.95279 5.9375 7.89062V3.67188C5.9375 3.60971 5.91281 3.5501 5.86885 3.50615C5.8249 3.46219 5.76529 3.4375 5.70312 3.4375H5.23438C5.17221 3.4375 5.1126 3.46219 5.06865 3.50615C5.02469 3.5501 5 3.60971 5 3.67188V7.89062C5 7.95279 5.02469 8.0124 5.06865 8.05635C5.1126 8.10031 5.17221 8.125 5.23438 8.125ZM8.4375 1.5625H6.82793L6.16387 0.455078C6.08053 0.316214 5.96264 0.201307 5.82169 0.121554C5.68073 0.0418013 5.52152 -7.70194e-05 5.35957 1.06337e-07H3.39043C3.22854 -9.54627e-06 3.06941 0.0419008 2.92853 0.12165C2.78766 0.2014 2.66983 0.316271 2.58652 0.455078L1.92207 1.5625H0.3125C0.22962 1.5625 0.150134 1.59542 0.0915291 1.65403C0.032924 1.71263 0 1.79212 0 1.875L0 2.1875C0 2.27038 0.032924 2.34987 0.0915291 2.40847C0.150134 2.46708 0.22962 2.5 0.3125 2.5H0.625V9.0625C0.625 9.31114 0.723772 9.5496 0.899587 9.72541C1.0754 9.90123 1.31386 10 1.5625 10H7.1875C7.43614 10 7.6746 9.90123 7.85041 9.72541C8.02623 9.5496 8.125 9.31114 8.125 9.0625V2.5H8.4375C8.52038 2.5 8.59987 2.46708 8.65847 2.40847C8.71708 2.34987 8.75 2.27038 8.75 2.1875V1.875C8.75 1.79212 8.71708 1.71263 8.65847 1.65403C8.59987 1.59542 8.52038 1.5625 8.4375 1.5625ZM3.35625 0.994336C3.36669 0.976952 3.38147 0.962575 3.39914 0.952613C3.4168 0.94265 3.43675 0.937443 3.45703 0.9375H5.29297C5.31322 0.937477 5.33312 0.9427 5.35075 0.952661C5.36838 0.962622 5.38313 0.97698 5.39355 0.994336L5.73457 1.5625H3.01543L3.35625 0.994336ZM7.1875 9.0625H1.5625V2.5H7.1875V9.0625ZM3.04688 8.125H3.51562C3.57779 8.125 3.6374 8.10031 3.68135 8.05635C3.72531 8.0124 3.75 7.95279 3.75 7.89062V3.67188C3.75 3.60971 3.72531 3.5501 3.68135 3.50615C3.6374 3.46219 3.57779 3.4375 3.51562 3.4375H3.04688C2.98471 3.4375 2.9251 3.46219 2.88115 3.50615C2.83719 3.5501 2.8125 3.60971 2.8125 3.67188V7.89062C2.8125 7.95279 2.83719 8.0124 2.88115 8.05635C2.9251 8.10031 2.98471 8.125 3.04688 8.125Z" fill="#F58F8F"/>
</g>
<defs>
<clipPath id="clip0_1_232">
<rect width="8.75" height="10" fill="white"/>
</clipPath>
</defs>
</svg>
