<svg width="15" height="12" viewBox="0 0 15 12" fill="none" xmlns="http://www.w3.org/2000/svg">
<path d="M14.6062 4.49999C13.3921 4.58202 11.6601 5.78202 10.7836 6.17577C10.1015 6.4828 9.51325 6.74765 8.99997 6.74765C8.47028 6.74765 8.39059 6.36796 8.50075 5.53124C8.52653 5.34374 8.77497 3.67499 7.49997 3.74765C6.91169 3.7828 5.99294 4.3289 3.52731 6.70077L4.49997 4.2703C5.21247 2.4914 3.2531 0.719524 1.46013 1.86093L0.173412 2.72577C-2.55996e-05 2.83593 -0.051588 3.06796 0.0585681 3.24374L0.461693 3.87655C0.571849 4.05234 0.80388 4.1039 0.979661 3.9914L2.33903 3.07968C2.77028 2.80546 3.29294 3.24843 3.10544 3.71484L0.80388 9.47109C0.644505 9.86718 0.867161 10.5 1.49997 10.5C1.6945 10.5 1.88669 10.425 2.02966 10.2797C3.01872 9.29062 5.65544 6.74765 6.97965 5.69062C6.92809 6.35859 6.93044 7.07109 7.46247 7.65468C7.82106 8.04843 8.33668 8.24765 8.99762 8.24765C9.832 8.24765 10.5914 7.90546 11.3953 7.54452C12.1687 7.19765 13.7156 6.07734 14.639 6.00234C14.8382 5.98593 14.9953 5.83124 14.9953 5.63202V4.87968C15 4.6664 14.8195 4.48593 14.6062 4.49999Z" fill="black"/>
</svg>
