<svg width="12" height="10" viewBox="0 0 12 10" fill="none" xmlns="http://www.w3.org/2000/svg">
<g clip-path="url(#clip0_1_234)">
<path d="M7.85742 6.73516L8.48242 6.11016C8.58008 6.0125 8.75 6.08086 8.75 6.22149V9.06133C8.75 9.57891 8.33008 9.99884 7.8125 9.99884H0.9375C0.419922 9.99884 0 9.57891 0 9.06133V2.18633C0 1.66875 0.419922 1.24883 0.9375 1.24883H6.2793C6.41797 1.24883 6.48828 1.4168 6.39063 1.5164L5.76563 2.14141C5.73633 2.1707 5.69727 2.18633 5.6543 2.18633H0.9375V9.06133H7.8125V6.84454C7.8125 6.80352 7.82813 6.76446 7.85742 6.73516ZM10.916 2.79375L5.78711 7.92266L4.02148 8.11797C3.50977 8.17462 3.07422 7.74297 3.13086 7.22735L3.32617 5.46172L8.45508 0.33281C8.90234 -0.114456 9.625 -0.114456 10.0703 0.33281L10.9141 1.17656C11.3613 1.62383 11.3613 2.34844 10.916 2.79375V2.79375ZM8.98633 3.39727L7.85156 2.2625L4.22266 5.89336L4.08008 7.16875L5.35547 7.02618L8.98633 3.39727ZM10.252 1.84062L9.4082 0.996873C9.32813 0.916795 9.19727 0.916795 9.11914 0.996873L8.51563 1.60039L9.65039 2.73516L10.2539 2.13164C10.332 2.04961 10.332 1.9207 10.252 1.84062V1.84062Z" fill="#489CB7"/>
</g>
<defs>
<clipPath id="clip0_1_234">
<rect width="11.25" height="10" fill="white"/>
</clipPath>
</defs>
</svg>
